# xmcd CD database file
#
# Track frame offsets:
#	150
#	5104
#	11674
#	14559
#	22274
#	27140
#	39335
#	44742
#	48652
#	54679
#	60847
#	65772
#
# Disc length: 1080 seconds
#
# Revision: 2
# Processed by: cddbd v1.5.2PL0 Copyright (c) Steve Scherf et al.
# Submitted via: CDex 1.70beta2
#
DISCID=a604360c
DTITLE=ellhnika_paradosiaka_tragoudia - ta_paradosiaka_tis_lampris_pasxa
DYEAR=2007
DGENRE=Country
TTITLE0=giannoulis - mia kori stin akrogialia
TTITLE1=spiliotopoulou - orkizesai mikro mou
TTITLE2=spiliotopoulou - otan pernas giati ta matia xamilonis
TTITLE3=giannoulis - aigiotissa
TTITLE4=giannoulis - i froso
TTITLE5=giannoulis - ta glyka sou matia
TTITLE6=spiliotopoulou - lemonaki
TTITLE7=giannoulis - m' ekapses gytonissa
TTITLE8=lampraki - kori pou pas ston potamo
TTITLE9=spiliotopoulou - armenaki
TTITLE10=giannoulis - tha paro mia psarovarka
TTITLE11=giannoulis - matia san kai ta dika sou
EXTD=YEAR: 2007
EXTT0=
EXTT1=
EXTT2=
EXTT3=
EXTT4=
EXTT5=
EXTT6=
EXTT7=
EXTT8=
EXTT9=
EXTT10=
EXTT11=
PLAYORDER=
